<?xml version="1.0" encoding="UTF-8" standalone="no"?>
<!DOCTYPE svg PUBLIC "-//W3C//DTD SVG 1.1//EN" "http://www.w3.org/Graphics/SVG/1.1/DTD/svg11.dtd">
<svg xmlns="http://www.w3.org/2000/svg" version="1.1" viewBox="0 0 1444 478" width="1444.0pt" height="478.0pt">
<path d="M 0.00 0.00 L 1444.00 0.00 L 1444.00 478.00 L 0.00 478.00 L 0.00 0.00 Z" fill="#fcfeff" />
<path d="M 814.03 7.73 C 871.68 17.50 927.71 37.00 977.98 67.02 C 999.93 80.21 1020.61 95.20 1039.58 112.42 C 1041.76 114.86 1046.01 113.81 1049.00 114.03 C 1176.29 113.97 1303.72 114.03 1431.03 114.00 C 1434.91 114.03 1438.55 114.72 1441.16 117.84 C 1445.17 122.46 1444.46 129.89 1439.60 133.60 C 1435.88 136.57 1430.46 135.61 1426.00 135.75 C 1290.84 135.71 1155.67 135.78 1020.51 135.71 C 1013.18 127.28 1004.99 119.77 996.44 112.60 C 965.60 86.95 929.47 67.10 891.99 53.00 C 847.98 36.40 801.38 27.52 754.48 24.86 C 700.63 21.67 646.62 26.78 594.76 41.88 C 547.36 55.68 501.80 77.62 462.26 107.26 C 450.73 115.96 439.48 125.32 429.42 135.70 C 292.29 135.81 155.14 135.69 18.00 135.76 C 13.92 135.63 8.69 136.47 5.28 133.79 C 0.01 129.95 -0.71 122.43 3.60 117.58 C 7.50 113.18 13.72 114.10 19.00 113.98 C 145.66 114.04 272.34 113.99 399.00 114.01 C 402.28 113.97 405.66 114.25 408.92 113.80 C 411.93 112.09 414.32 109.21 417.02 107.04 C 472.31 59.32 541.45 27.88 612.52 12.38 C 678.54 -1.99 747.41 -3.46 814.03 7.73 Z" fill="#67b332" />
<path d="M 525.98 110.22 C 533.42 109.75 541.09 109.59 548.26 111.79 C 559.97 114.95 570.12 121.87 577.45 131.51 C 585.84 142.83 594.00 154.33 602.36 165.68 C 606.88 141.80 624.81 121.67 647.67 113.70 C 656.12 110.61 665.03 109.47 674.00 109.56 C 706.23 109.67 738.48 109.42 770.71 109.68 C 755.90 132.02 740.93 154.26 726.25 176.67 C 710.48 176.83 694.70 176.64 678.94 176.75 C 675.16 176.70 671.90 179.20 670.67 182.70 C 669.08 186.06 671.06 190.14 673.74 192.29 C 676.90 195.00 682.09 194.14 686.00 194.29 C 737.45 194.29 788.93 194.20 840.38 194.33 C 827.86 214.59 814.88 234.57 802.24 254.74 C 793.17 254.72 784.10 254.74 775.03 254.73 C 774.98 260.36 774.98 265.99 775.06 271.62 C 816.03 271.50 857.02 271.61 898.00 271.57 C 907.04 272.24 915.71 272.11 924.48 269.51 C 931.58 267.34 937.89 263.11 941.63 256.58 C 947.44 246.81 948.39 234.12 948.23 223.01 C 948.16 212.33 944.29 201.85 937.00 194.00 C 929.09 185.53 918.25 180.36 907.09 177.72 C 901.43 176.24 895.87 176.82 890.00 176.73 C 837.19 176.68 784.36 176.82 731.55 176.66 C 746.21 154.23 761.03 131.90 775.85 109.57 C 819.24 109.58 862.63 109.56 906.02 109.58 C 931.47 110.43 956.61 120.50 975.79 137.22 C 992.53 151.50 1004.90 170.84 1011.00 191.97 C 1020.27 223.54 1015.28 258.72 997.32 286.33 C 984.29 306.58 964.76 322.63 942.23 331.21 C 928.85 336.32 914.35 339.16 900.00 338.74 C 756.33 338.72 612.67 338.74 469.00 338.73 C 463.91 338.73 458.83 338.79 453.75 338.65 C 467.97 318.31 482.65 298.27 497.01 278.03 C 529.78 277.97 562.55 278.02 595.33 278.00 C 573.98 248.74 552.72 219.40 531.37 190.14 C 495.70 239.25 459.87 288.26 424.28 337.43 C 397.73 337.40 371.18 337.49 344.63 337.38 C 350.06 329.28 355.82 321.40 361.34 313.36 C 400.42 257.76 439.43 202.09 478.50 146.48 C 483.97 139.16 488.76 130.50 495.45 124.44 C 503.72 116.73 514.76 111.61 525.98 110.22 Z" fill="#393736" />
<path d="M 667.00 123.00 C 692.57 123.02 718.14 122.97 743.71 123.02 C 735.90 136.78 728.31 150.69 720.35 164.36 C 706.24 164.33 692.06 164.33 677.96 164.33 C 669.96 164.15 662.56 170.20 660.91 177.97 C 660.17 182.25 660.46 186.75 660.81 191.05 C 661.37 198.61 667.46 205.41 674.72 207.31 C 678.97 208.26 683.65 207.83 688.00 207.88 C 731.48 207.91 774.96 207.83 818.44 207.92 C 811.70 217.64 804.55 227.07 797.80 236.79 C 796.99 237.89 796.11 239.12 795.00 239.93 C 791.39 240.39 787.64 240.08 784.00 240.12 C 748.03 240.13 711.91 240.10 675.96 240.13 C 668.42 240.16 661.52 245.46 659.61 252.76 C 658.19 258.59 658.12 265.58 660.98 271.01 C 664.18 277.45 670.81 282.15 678.01 282.75 C 682.31 283.07 686.68 282.84 691.00 282.88 C 733.48 282.90 775.97 282.85 818.46 282.91 C 809.42 297.74 800.27 312.51 791.18 327.30 C 750.79 327.39 710.39 327.27 670.00 327.36 C 664.07 327.77 658.58 326.35 652.79 325.39 C 642.23 323.99 632.63 317.01 626.47 308.53 C 613.98 291.42 612.67 267.21 622.57 248.58 C 627.61 238.98 635.88 230.93 646.14 227.14 C 651.10 225.23 656.40 224.97 661.65 224.45 C 656.30 224.15 651.17 223.91 646.13 221.91 C 636.70 218.46 629.20 211.47 623.98 203.02 C 613.20 185.08 613.36 161.21 624.45 143.45 C 630.41 134.22 639.21 126.75 650.05 124.13 C 655.76 122.66 661.17 123.00 667.00 123.00 Z" fill="#67b332" />
<path d="M 8.97 154.81 C 12.58 154.27 16.35 154.57 20.00 154.53 C 142.67 154.53 265.33 154.53 388.00 154.53 C 393.04 154.81 399.99 153.30 403.92 157.07 C 408.80 161.14 408.90 168.98 404.18 173.23 C 401.64 175.80 398.47 176.17 395.02 176.22 C 271.01 176.21 147.01 176.22 23.00 176.22 C 18.70 176.17 14.26 176.48 9.99 175.90 C 5.49 175.30 1.60 171.51 0.90 167.03 C -0.01 161.74 3.60 155.86 8.97 154.81 Z" fill="#67b332" />
<path d="M 1060.00 154.52 C 1181.33 154.55 1302.67 154.52 1424.00 154.53 C 1427.34 154.54 1430.73 154.36 1434.07 154.64 C 1438.93 155.03 1443.15 159.08 1443.68 163.94 C 1444.40 169.27 1440.99 174.44 1435.76 175.75 C 1431.64 176.57 1427.19 176.15 1423.00 176.22 C 1302.00 176.23 1181.00 176.19 1060.00 176.24 C 1055.43 176.12 1050.05 176.88 1046.28 173.73 C 1041.33 169.79 1040.90 161.91 1045.52 157.53 C 1049.25 153.44 1055.06 154.72 1060.00 154.52 Z" fill="#67b332" />
<path d="M 20.00 194.78 C 133.67 194.79 247.33 194.79 361.00 194.79 C 364.65 194.82 368.39 194.55 372.02 194.99 C 376.63 195.60 380.13 199.51 380.81 204.03 C 381.61 209.30 378.23 214.73 372.99 216.02 C 369.12 216.81 364.94 216.41 361.00 216.47 C 247.00 216.47 133.00 216.45 19.00 216.48 C 14.09 216.31 8.20 217.44 4.33 213.67 C -0.44 209.41 -0.43 201.61 4.45 197.44 C 8.39 193.63 14.96 195.00 20.00 194.78 Z" fill="#67b332" />
<path d="M 1087.00 194.77 C 1199.33 194.80 1311.67 194.78 1424.00 194.79 C 1427.64 194.82 1431.38 194.54 1434.99 195.02 C 1439.81 195.80 1443.51 200.13 1443.75 204.97 C 1444.16 210.19 1440.29 215.43 1435.05 216.19 C 1431.10 216.73 1426.99 216.42 1423.00 216.47 C 1311.00 216.48 1199.00 216.45 1087.00 216.49 C 1082.41 216.37 1076.71 217.23 1072.97 214.04 C 1067.75 209.76 1067.71 201.29 1073.09 197.12 C 1076.86 193.89 1082.39 194.93 1087.00 194.77 Z" fill="#67b332" />
<path d="M 19.00 234.99 C 124.33 235.03 229.67 235.01 335.00 235.00 C 340.14 235.16 346.13 234.03 350.36 237.67 C 355.48 241.87 355.34 250.09 350.28 254.29 C 346.35 257.70 340.78 256.58 336.00 256.75 C 231.01 256.72 125.99 256.74 21.00 256.74 C 15.74 256.51 9.05 257.88 4.75 254.26 C -0.48 250.18 -0.54 241.78 4.60 237.61 C 8.55 234.22 14.18 235.11 19.00 234.99 Z" fill="#67b332" />
<path d="M 1115.00 235.00 C 1218.00 235.02 1321.00 235.01 1424.00 235.00 C 1429.37 235.14 1435.74 234.06 1440.13 237.86 C 1445.20 242.28 1444.87 250.50 1439.59 254.59 C 1435.59 257.83 1428.86 256.49 1424.00 256.74 C 1318.32 256.73 1212.63 256.74 1106.95 256.73 C 1103.46 256.77 1100.44 255.49 1098.21 252.79 C 1094.15 248.04 1095.37 239.95 1100.80 236.78 C 1104.67 234.27 1110.56 235.13 1115.00 235.00 Z" fill="#67b332" />
<path d="M 675.03 255.03 C 676.63 254.70 678.36 254.71 680.00 254.70 C 692.03 254.77 704.05 254.72 716.08 254.73 C 716.08 260.35 716.09 265.97 716.08 271.59 C 705.39 271.56 694.69 271.56 684.00 271.59 C 681.27 271.56 678.43 271.79 675.73 271.33 C 672.21 270.72 669.69 267.34 668.99 264.01 C 668.68 260.21 671.26 256.03 675.03 255.03 Z" fill="#fcfeff" />
<path d="M 17.00 275.50 C 114.00 275.55 211.00 275.51 308.00 275.52 C 311.93 275.59 316.08 275.19 319.95 275.94 C 324.23 277.32 327.41 281.49 327.39 286.03 C 327.61 291.30 323.35 296.50 318.01 296.90 C 314.36 297.18 310.66 296.97 307.00 296.99 C 211.67 297.00 116.33 297.00 21.00 297.00 C 15.72 296.73 8.77 298.26 4.58 294.40 C -0.64 290.23 -0.42 281.84 4.80 277.78 C 8.16 274.88 12.90 275.62 17.00 275.50 Z" fill="#67b332" />
<path d="M 1140.00 275.51 C 1235.33 275.54 1330.67 275.53 1426.00 275.51 C 1431.11 275.66 1436.49 274.54 1440.44 278.55 C 1445.16 282.95 1444.80 290.78 1439.74 294.75 C 1436.02 297.95 1430.56 296.84 1426.00 297.01 C 1331.33 296.98 1236.67 297.00 1142.00 297.00 C 1136.81 296.70 1129.78 298.39 1125.93 294.09 C 1121.36 289.82 1121.47 282.26 1126.18 278.15 C 1129.63 274.61 1135.49 275.67 1140.00 275.51 Z" fill="#67b332" />
<path d="M 20.00 315.78 C 107.00 315.78 194.00 315.78 281.00 315.77 C 285.12 315.86 289.64 315.35 293.64 316.41 C 299.91 318.50 302.47 326.52 299.16 332.10 C 297.07 335.86 293.21 337.47 289.03 337.46 C 199.13 337.50 108.88 337.44 19.00 337.49 C 13.63 337.36 8.05 338.33 3.94 334.07 C -0.59 329.89 -0.14 322.37 4.45 318.43 C 8.36 314.61 14.97 316.02 20.00 315.78 Z" fill="#67b332" />
<path d="M 1169.00 315.78 C 1256.68 315.78 1344.35 315.77 1432.03 315.78 C 1436.09 315.72 1439.92 317.41 1442.14 320.88 C 1445.10 325.56 1443.91 332.16 1439.34 335.35 C 1435.81 338.14 1430.25 337.39 1426.00 337.49 C 1337.80 337.44 1249.17 337.50 1160.96 337.46 C 1157.35 337.41 1153.92 336.31 1151.65 333.37 C 1148.02 328.63 1148.68 322.06 1153.23 318.20 C 1157.17 314.63 1164.05 316.02 1169.00 315.78 Z" fill="#67b332" />
<path d="M 43.10 365.42 C 48.29 365.03 53.54 365.39 58.74 365.29 C 66.78 388.34 75.08 411.32 83.10 434.38 C 79.26 434.43 75.41 434.43 71.57 434.43 C 70.00 429.84 68.42 425.25 66.75 420.69 C 56.29 420.76 45.82 420.74 35.35 420.71 C 33.70 425.27 32.13 429.86 30.54 434.45 C 26.66 434.41 22.77 434.41 18.88 434.41 C 25.90 413.70 33.31 393.11 40.43 372.43 C 41.23 370.08 41.98 367.64 43.10 365.42 Z" fill="#393736" />
<path d="M 118.06 364.79 C 124.54 365.11 132.00 364.03 137.18 368.79 C 142.60 373.55 142.03 381.33 142.51 387.88 C 138.79 387.91 135.07 387.91 131.36 387.90 C 131.13 384.56 131.59 380.18 129.67 377.30 C 128.69 375.53 126.93 375.10 125.06 374.79 C 120.76 374.19 116.32 374.42 111.98 374.44 C 108.60 374.61 104.44 374.67 101.47 376.44 C 99.41 377.64 98.46 379.81 98.02 382.06 C 96.81 391.29 97.80 399.83 97.76 409.01 C 97.88 413.21 97.85 418.11 100.28 421.73 C 102.03 424.42 105.01 424.94 107.98 425.18 C 113.32 425.47 118.77 425.48 124.11 425.05 C 126.64 424.77 130.12 423.78 131.16 421.17 C 132.57 417.95 132.02 413.75 132.13 410.28 C 135.74 410.26 139.36 410.28 142.98 410.27 C 142.87 416.81 144.05 424.89 138.92 429.95 C 133.39 435.41 124.16 434.94 117.00 435.00 C 108.76 434.89 99.57 435.92 92.76 430.29 C 86.67 425.33 86.63 416.18 86.15 408.99 C 86.21 399.38 85.37 389.43 86.83 379.92 C 87.63 373.58 92.61 368.60 98.42 366.48 C 104.48 364.49 111.68 365.16 118.06 364.79 Z" fill="#393736" />
<path d="M 182.06 364.79 C 188.88 365.06 196.42 364.08 201.72 369.32 C 206.69 374.79 205.76 381.07 206.49 387.87 C 202.78 387.92 199.07 387.92 195.37 387.89 C 195.13 384.73 195.45 380.84 193.99 377.97 C 193.16 376.32 191.86 375.28 190.02 374.97 C 185.46 374.10 180.61 374.43 175.98 374.44 C 172.45 374.64 167.78 374.66 164.80 376.81 C 162.04 378.97 161.75 382.74 161.55 385.97 C 161.20 394.94 161.47 404.05 161.86 413.01 C 162.01 416.15 162.55 419.81 164.59 422.33 C 166.32 424.42 169.41 425.01 171.98 425.18 C 176.97 425.46 182.05 425.42 187.05 425.15 C 189.84 424.97 193.25 424.27 194.80 421.68 C 196.63 418.51 196.01 413.85 196.13 410.28 C 199.77 410.26 203.42 410.27 207.06 410.28 C 206.82 416.70 207.84 424.18 203.40 429.47 C 199.56 433.82 192.49 434.84 187.00 434.93 C 180.13 434.91 173.06 435.39 166.24 434.43 C 160.08 433.49 154.32 429.93 152.23 423.81 C 149.60 415.85 150.13 406.31 150.00 398.00 C 150.10 391.52 149.54 384.41 151.14 378.11 C 152.09 373.79 155.42 370.42 158.99 368.04 C 165.32 364.16 174.85 365.24 182.06 364.79 Z" fill="#393736" />
<path d="M 215.63 365.28 C 219.31 365.27 222.99 365.27 226.68 365.33 C 226.71 388.37 226.85 411.42 226.61 434.46 C 222.94 434.44 219.28 434.42 215.61 434.42 C 215.57 411.37 215.53 388.32 215.63 365.28 Z" fill="#393736" />
<path d="M 273.04 365.28 C 278.68 365.54 285.59 366.17 289.93 370.18 C 294.03 373.74 296.11 378.69 296.75 384.01 C 297.90 393.86 297.47 404.17 296.83 414.04 C 296.40 420.09 294.19 426.44 289.18 430.20 C 284.55 433.71 278.63 434.20 273.02 434.41 C 261.55 434.47 250.07 434.36 238.60 434.46 C 238.51 411.43 238.67 388.40 238.52 365.36 C 250.02 365.18 261.53 365.30 273.04 365.28 Z" fill="#393736" />
<path d="M 352.70 365.30 C 352.72 368.43 352.72 371.57 352.68 374.70 C 341.02 374.76 329.37 374.70 317.72 374.73 C 317.74 381.33 317.72 387.93 317.73 394.54 C 328.84 394.59 339.95 394.63 351.05 394.52 C 351.02 397.50 351.03 400.47 351.06 403.45 C 339.95 403.41 328.82 403.40 317.71 403.46 C 317.75 410.68 317.73 417.89 317.73 425.11 C 329.45 425.09 341.17 425.05 352.89 425.13 C 352.90 428.23 352.90 431.34 352.90 434.44 C 337.45 434.37 321.99 434.50 306.54 434.37 C 306.60 411.36 306.60 388.34 306.54 365.32 C 321.93 365.23 337.31 365.27 352.70 365.30 Z" fill="#393736" />
<path d="M 362.24 365.39 C 368.12 365.06 374.04 365.39 379.93 365.27 C 391.06 385.07 402.44 404.67 413.03 424.76 C 412.14 404.99 412.78 385.16 412.54 365.36 C 416.26 365.29 419.98 365.23 423.70 365.31 C 423.77 388.32 423.68 411.34 423.75 434.35 C 417.70 434.47 411.65 434.43 405.60 434.40 C 394.54 414.69 382.50 395.45 372.63 375.17 C 373.23 394.90 372.78 414.68 372.89 434.43 C 369.30 434.42 365.71 434.42 362.11 434.44 C 362.05 414.29 362.12 394.15 362.08 374.00 C 362.09 371.14 361.96 368.24 362.24 365.39 Z" fill="#393736" />
<path d="M 483.89 365.31 C 483.91 368.69 483.90 372.06 483.89 375.43 C 476.83 375.43 469.78 375.43 462.72 375.44 C 462.69 395.11 462.81 414.78 462.66 434.45 C 458.98 434.43 455.29 434.42 451.61 434.45 C 451.52 414.78 451.62 395.11 451.56 375.44 C 444.60 375.43 437.64 375.41 430.68 375.47 C 430.58 372.10 430.56 368.74 430.48 365.37 C 448.28 365.17 466.09 365.29 483.89 365.31 Z" fill="#393736" />
<path d="M 515.97 365.29 C 527.32 365.27 538.67 365.27 550.02 365.27 C 554.95 365.37 560.94 366.01 565.03 369.00 C 569.22 372.18 570.36 378.01 570.68 382.96 C 570.87 388.01 570.85 393.91 568.72 398.59 C 566.89 402.56 563.23 403.48 559.39 404.61 C 561.48 405.12 563.58 405.34 565.33 406.67 C 568.62 409.11 569.78 413.03 569.89 416.97 C 570.00 422.78 569.86 428.60 569.89 434.42 C 566.13 434.42 562.37 434.43 558.61 434.46 C 558.55 429.63 558.57 424.79 558.65 419.96 C 558.60 417.23 558.51 414.49 556.61 412.34 C 554.35 409.78 551.27 409.47 548.05 409.41 C 541.00 409.41 533.95 409.41 526.89 409.46 C 526.91 417.79 526.93 426.12 526.88 434.45 C 523.23 434.43 519.59 434.42 515.95 434.45 C 516.06 411.39 516.01 388.34 515.97 365.29 Z" fill="#393736" />
<path d="M 626.45 365.39 C 626.44 368.48 626.44 371.57 626.43 374.66 C 614.77 374.80 603.10 374.69 591.44 374.72 C 591.42 381.33 591.44 387.93 591.42 394.54 C 602.51 394.62 613.61 394.58 624.70 394.56 C 624.71 397.52 624.72 400.48 624.71 403.44 C 613.61 403.42 602.52 403.41 591.43 403.44 C 591.44 410.67 591.41 417.89 591.45 425.11 C 603.13 425.09 614.80 425.06 626.48 425.12 C 626.42 428.23 626.41 431.34 626.36 434.45 C 611.51 434.36 596.62 434.50 581.78 434.40 C 579.61 434.74 580.53 432.29 580.25 431.01 C 580.38 409.14 580.14 387.24 580.36 365.38 C 595.72 365.21 611.09 365.20 626.45 365.39 Z" fill="#393736" />
<path d="M 664.00 365.26 C 668.82 365.25 673.82 365.15 678.53 366.38 C 682.09 367.38 685.13 369.88 686.75 373.21 C 689.18 378.04 689.12 383.72 689.17 389.02 C 689.07 394.50 688.77 399.79 685.39 404.37 C 682.26 408.39 676.90 409.85 672.00 409.88 C 663.58 409.97 655.15 409.89 646.73 409.90 C 646.70 418.08 646.79 426.26 646.66 434.45 C 642.98 434.43 639.29 434.42 635.61 434.45 C 635.52 411.41 635.60 388.37 635.57 365.33 C 645.04 365.21 654.52 365.32 664.00 365.26 Z" fill="#393736" />
<path d="M 711.72 365.45 C 716.90 364.99 722.20 365.39 727.40 365.31 C 735.45 388.34 743.65 411.32 751.79 434.32 C 747.90 434.41 744.02 434.50 740.13 434.39 C 738.66 429.81 737.04 425.29 735.48 420.75 C 724.97 420.71 714.45 420.74 703.94 420.73 C 702.37 425.30 700.72 429.84 699.25 434.44 C 695.37 434.43 691.48 434.42 687.60 434.41 C 694.74 412.83 702.60 391.46 709.93 369.94 C 710.45 368.43 710.99 366.87 711.72 365.45 Z" fill="#393736" />
<path d="M 768.69 365.31 C 768.74 388.34 768.77 411.39 768.68 434.42 C 764.99 434.42 761.30 434.43 757.62 434.44 C 757.50 411.42 757.65 388.41 757.54 365.39 C 761.26 365.31 764.97 365.20 768.69 365.31 Z" fill="#393736" />
<path d="M 811.00 365.26 C 816.31 365.22 822.55 365.30 827.45 367.55 C 831.68 369.59 834.11 373.42 834.86 377.97 C 835.87 384.39 836.02 391.67 833.89 397.87 C 832.12 402.19 828.44 403.62 824.17 404.53 C 826.57 405.16 828.87 405.44 830.78 407.16 C 833.62 409.60 834.60 413.32 834.72 416.94 C 834.80 422.78 834.75 428.62 834.61 434.46 C 830.94 434.44 827.28 434.42 823.61 434.42 C 823.50 429.28 823.71 424.12 823.52 418.98 C 823.34 416.21 822.95 413.25 820.59 411.43 C 818.16 409.43 815.01 409.45 812.03 409.40 C 805.26 409.43 798.50 409.41 791.73 409.43 C 791.73 417.73 791.70 426.04 791.75 434.34 C 788.04 434.41 784.33 434.45 780.62 434.45 C 780.49 411.42 780.65 388.39 780.54 365.37 C 790.69 365.16 800.85 365.34 811.00 365.26 Z" fill="#393736" />
<path d="M 885.49 365.56 C 890.92 364.75 896.54 365.04 902.02 364.79 C 908.85 365.11 915.48 364.09 920.92 369.12 C 925.70 374.06 925.69 381.45 925.78 387.88 C 922.08 387.92 918.39 387.91 914.69 387.89 C 914.42 384.41 914.98 378.48 911.96 376.09 C 907.89 373.63 901.61 374.60 896.99 374.41 C 892.88 374.63 886.60 374.35 883.49 377.49 C 880.24 381.04 881.00 387.54 880.89 392.00 C 881.17 400.52 880.18 409.61 881.97 417.97 C 882.73 421.37 884.64 424.03 888.21 424.74 C 894.02 425.73 900.14 425.36 906.02 425.19 C 909.44 424.94 913.36 424.29 914.74 420.65 C 915.71 417.40 915.54 413.64 915.53 410.27 C 919.15 410.26 922.78 410.27 926.41 410.31 C 926.34 416.34 927.14 424.87 922.63 429.60 C 917.34 435.10 909.06 434.95 901.99 434.99 C 894.30 434.84 884.99 435.99 878.20 431.77 C 873.65 429.26 871.46 424.70 870.56 419.77 C 868.97 409.35 869.25 399.43 869.29 388.95 C 869.45 384.91 869.76 380.71 870.93 376.81 C 873.01 370.56 879.20 366.58 885.49 365.56 Z" fill="#393736" />
<path d="M 934.97 365.27 C 950.27 365.29 965.57 365.25 980.88 365.29 C 980.90 368.43 980.90 371.56 980.88 374.70 C 969.22 374.75 957.56 374.71 945.90 374.73 C 945.91 381.33 945.92 387.94 945.90 394.54 C 957.08 394.63 968.26 394.55 979.43 394.59 C 979.42 397.54 979.41 400.48 979.42 403.43 C 968.24 403.44 957.07 403.39 945.89 403.46 C 945.92 410.68 945.91 417.89 945.90 425.10 C 957.59 425.09 969.29 425.08 980.98 425.10 C 981.00 428.22 981.03 431.34 981.07 434.46 C 965.70 434.40 950.31 434.40 934.93 434.46 C 935.07 411.40 935.00 388.33 934.97 365.27 Z" fill="#393736" />
<path d="M 990.44 365.42 C 996.38 365.04 1002.39 365.38 1008.35 365.29 C 1019.34 385.13 1030.93 404.67 1041.34 424.80 C 1040.81 404.99 1041.18 385.12 1041.14 365.29 C 1044.77 365.27 1048.40 365.28 1052.03 365.29 C 1051.99 388.34 1051.94 411.40 1052.05 434.45 C 1046.03 434.41 1040.02 434.39 1033.99 434.47 C 1027.12 422.52 1020.32 410.52 1013.40 398.59 C 1008.79 390.94 1005.04 382.98 1000.93 375.07 C 1001.78 394.85 1001.32 414.65 1001.40 434.47 C 997.69 434.44 993.98 434.42 990.27 434.37 C 990.27 412.57 990.29 390.77 990.25 368.97 C 990.25 367.78 990.31 366.60 990.44 365.42 Z" fill="#393736" />
<path d="M 1058.97 365.26 C 1076.65 365.29 1094.32 365.27 1112.00 365.27 C 1112.00 368.66 1112.00 372.05 1112.00 375.43 C 1104.99 375.45 1097.98 375.40 1090.98 375.45 C 1090.80 395.11 1090.98 414.77 1090.89 434.43 C 1087.26 434.43 1083.63 434.42 1080.00 434.42 C 1080.00 414.76 1080.01 395.09 1080.00 375.43 C 1072.98 375.45 1065.95 375.40 1058.93 375.45 C 1058.99 372.06 1058.99 368.66 1058.97 365.26 Z" fill="#393736" />
<path d="M 1119.24 365.40 C 1127.80 365.06 1136.42 365.39 1145.00 365.27 C 1151.79 365.31 1160.00 364.70 1166.28 367.72 C 1171.71 370.47 1173.53 376.29 1173.85 381.98 C 1174.01 387.35 1174.34 393.95 1171.92 398.88 C 1169.95 402.63 1166.34 403.64 1162.52 404.59 C 1164.66 405.09 1166.61 405.25 1168.43 406.57 C 1171.58 408.69 1172.95 412.26 1172.98 415.96 C 1173.10 422.12 1172.90 428.29 1173.07 434.46 C 1169.42 434.41 1165.77 434.41 1162.12 434.44 C 1162.01 429.27 1162.23 424.10 1162.03 418.94 C 1161.92 416.20 1161.12 412.91 1158.72 411.26 C 1156.22 409.37 1153.00 409.46 1150.01 409.40 C 1143.36 409.43 1136.71 409.41 1130.06 409.43 C 1129.95 417.77 1129.96 426.12 1130.06 434.46 C 1126.41 434.42 1122.76 434.42 1119.11 434.44 C 1119.07 414.63 1119.11 394.81 1119.09 375.00 C 1119.11 371.81 1118.94 368.58 1119.24 365.40 Z" fill="#393736" />
<path d="M 1183.63 365.28 C 1198.99 365.28 1214.35 365.26 1229.71 365.29 C 1229.73 368.43 1229.72 371.56 1229.69 374.69 C 1218.04 374.77 1206.38 374.70 1194.73 374.73 C 1194.72 381.33 1194.74 387.93 1194.70 394.53 C 1205.77 394.63 1216.83 394.56 1227.90 394.58 C 1227.90 397.53 1227.90 400.48 1227.90 403.43 C 1216.84 403.44 1205.78 403.39 1194.72 403.45 C 1194.73 410.67 1194.72 417.88 1194.73 425.10 C 1206.39 425.10 1218.05 425.06 1229.71 425.12 C 1229.72 428.22 1229.73 431.31 1229.73 434.41 C 1214.36 434.45 1198.99 434.41 1183.61 434.43 C 1183.57 411.38 1183.53 388.33 1183.63 365.28 Z" fill="#393736" />
<path d="M 1275.69 365.33 C 1275.76 384.97 1275.70 404.61 1275.72 424.25 C 1286.92 424.29 1298.12 424.29 1309.32 424.25 C 1309.42 427.62 1309.47 431.00 1309.47 434.38 C 1294.50 434.43 1279.51 434.51 1264.53 434.34 C 1264.61 411.35 1264.57 388.35 1264.55 365.36 C 1268.26 365.29 1271.97 365.22 1275.69 365.33 Z" fill="#393736" />
<path d="M 1302.97 365.27 C 1320.66 365.29 1338.34 365.26 1356.02 365.29 C 1356.01 368.68 1356.01 372.06 1356.06 375.45 C 1349.01 375.42 1341.95 375.42 1334.89 375.45 C 1334.91 395.12 1334.94 414.79 1334.88 434.45 C 1331.23 434.43 1327.59 434.42 1323.95 434.45 C 1324.06 414.78 1324.01 395.11 1323.97 375.45 C 1316.96 375.42 1309.95 375.42 1302.94 375.45 C 1302.98 372.06 1302.98 368.66 1302.97 365.27 Z" fill="#393736" />
<path d="M 1363.01 365.26 C 1373.67 365.29 1384.34 365.28 1395.00 365.26 C 1399.59 365.26 1404.51 365.57 1408.89 367.06 C 1414.34 368.96 1418.25 373.57 1419.98 378.99 C 1422.18 386.30 1421.69 393.50 1421.74 401.00 C 1421.81 406.87 1421.55 412.98 1420.46 418.76 C 1419.35 424.15 1415.96 429.46 1410.87 431.86 C 1406.35 433.95 1400.92 434.41 1396.00 434.44 C 1384.98 434.43 1373.96 434.38 1362.93 434.46 C 1363.10 411.39 1362.95 388.32 1363.01 365.26 Z" fill="#393736" />
<path d="M 50.96 374.99 C 55.46 387.30 59.63 399.74 64.02 412.09 C 55.42 412.10 46.81 412.07 38.21 412.11 C 42.38 399.71 46.64 387.33 50.96 374.99 Z" fill="#fcfeff" />
<path d="M 249.71 375.06 C 256.47 374.96 263.23 375.02 270.00 374.97 C 273.52 374.93 277.87 375.18 280.91 377.14 C 284.81 379.82 285.70 384.54 286.00 388.94 C 286.33 396.31 286.40 403.71 285.97 411.07 C 285.57 415.32 284.57 420.27 280.66 422.69 C 277.24 424.55 272.85 424.92 269.01 425.01 C 262.58 425.02 256.14 425.02 249.71 424.94 C 249.74 408.31 249.74 391.68 249.71 375.06 Z" fill="#fcfeff" />
<path d="M 526.90 374.90 C 534.62 374.96 542.34 374.83 550.05 374.92 C 553.42 375.06 557.39 375.76 558.72 379.33 C 559.80 383.93 559.85 389.30 558.97 393.93 C 557.84 397.76 554.46 399.12 550.80 399.56 C 542.92 400.48 534.84 399.81 526.91 400.00 C 526.90 391.63 526.92 383.26 526.90 374.90 Z" fill="#fcfeff" />
<path d="M 646.73 374.73 C 653.82 374.75 660.91 374.66 667.99 374.77 C 670.80 374.89 673.84 374.79 675.93 377.01 C 678.14 379.68 678.09 383.73 678.15 387.00 C 678.09 390.54 678.45 394.28 676.28 397.32 C 674.10 399.95 670.15 400.18 667.00 400.26 C 660.24 400.33 653.48 400.25 646.72 400.27 C 646.73 391.76 646.72 383.24 646.73 374.73 Z" fill="#fcfeff" />
<path d="M 719.54 374.56 C 723.88 387.03 728.28 399.47 732.58 411.96 C 724.00 412.23 715.41 412.03 706.82 412.10 C 710.98 399.57 715.62 387.17 719.54 374.56 Z" fill="#fcfeff" />
<path d="M 791.74 374.90 C 799.85 374.99 807.98 374.75 816.08 374.99 C 819.60 375.24 822.88 376.50 823.84 380.23 C 824.50 384.20 824.54 389.94 823.86 393.91 C 822.49 398.17 818.50 399.25 814.48 399.71 C 806.95 400.35 799.29 399.85 791.73 400.00 C 791.73 391.63 791.71 383.27 791.74 374.90 Z" fill="#fcfeff" />
<path d="M 1130.05 374.89 C 1137.70 374.96 1145.36 374.85 1153.02 374.92 C 1156.05 375.02 1159.99 375.44 1161.52 378.50 C 1163.05 381.97 1163.16 386.21 1162.92 389.93 C 1162.61 392.78 1162.13 395.79 1159.67 397.61 C 1157.08 399.47 1153.23 399.73 1150.11 399.96 C 1143.41 400.11 1136.70 399.95 1130.00 400.00 C 1130.02 391.63 1129.95 383.26 1130.05 374.89 Z" fill="#fcfeff" />
<path d="M 1373.89 375.08 C 1380.59 374.93 1387.29 375.03 1394.00 374.97 C 1397.60 374.96 1401.87 375.08 1405.05 376.99 C 1408.15 378.95 1409.50 382.43 1409.96 385.93 C 1410.80 392.92 1410.65 400.05 1410.50 407.07 C 1410.19 411.80 1410.21 417.18 1406.96 421.00 C 1404.29 424.25 1398.98 424.69 1395.07 424.96 C 1388.01 425.08 1380.94 425.02 1373.89 424.92 C 1373.92 408.31 1373.92 391.69 1373.89 375.08 Z" fill="#fcfeff" />
<path d="M 11.95 455.98 C 482.97 456.02 953.98 455.99 1425.00 456.00 C 1428.31 456.01 1431.69 455.80 1434.98 456.16 C 1440.21 456.92 1443.97 461.80 1443.78 467.03 C 1443.73 472.01 1439.98 476.58 1435.00 477.29 C 1431.38 477.70 1427.65 477.43 1424.00 477.47 C 956.33 477.47 488.67 477.47 21.00 477.47 C 17.02 477.41 12.91 477.76 8.97 477.19 C 3.20 476.06 -0.42 469.63 1.11 464.04 C 2.40 459.08 6.77 455.71 11.95 455.98 Z" fill="#67b332" />
</svg>